<svg width="55" height="56" viewBox="0 0 55 56" fill="none" xmlns="http://www.w3.org/2000/svg">
<path d="M54.9877 28.6101C54.6855 38.8122 48.8266 47.6191 40.3334 52.1087L42.585 29.8656L54.9877 28.6101Z" fill="#C8BEA8"/>
<path fill-rule="evenodd" clip-rule="evenodd" d="M0 27.7805C0 27.2786 0.0134277 26.7798 0.039978 26.2845L35.415 29.8655L37.7864 53.2921C34.6089 54.5745 31.1369 55.2805 27.5 55.2805C12.3122 55.2805 0 42.9683 0 27.7805Z" fill="#C8BEA8"/>
<path fill-rule="evenodd" clip-rule="evenodd" d="M0.0400391 26.2845C0.816956 11.7924 12.8141 0.280518 27.5001 0.280518C31.0259 0.280518 34.3967 0.944061 37.4945 2.15308L35.415 22.6955L0.0400391 26.2845Z" fill="#C8BEA8"/>
<path fill-rule="evenodd" clip-rule="evenodd" d="M40.6545 3.62488C48.1286 7.70367 53.5008 15.1502 54.7319 23.9251L42.585 22.6955L40.6545 3.62488Z" fill="#C8BEA8"/>
</svg>
