<svg width="736" height="190" viewBox="0 0 736 190" fill="none" xmlns="http://www.w3.org/2000/svg">
<path d="M362.406 0C513.135 1.89597e-05 652.717 70.2307 733.435 184.938C738.084 191.587 733.421 200.682 725.418 200.965L725.035 200.972H703.455L702.428 200.958C692.173 200.67 682.567 196.08 675.739 188.456L675.066 187.684C608.658 109.053 508.581 58.6525 398.828 49.459C408.125 51.01 417.177 53.2731 425.913 56.1943L385.626 164.77L285.127 201.874C279.09 204.118 279.09 212.654 285.127 214.844L385.626 251.894L422.785 352.096C425.035 358.115 433.597 358.115 435.793 352.096L473.007 251.894C473.007 251.894 548.038 225.078 548.038 225.461V225.516L548.034 226.697C547.381 327.064 463.661 407.737 362.024 403.866C346.892 403.286 332.218 400.793 318.239 396.629C186.095 376.832 69.3723 302.836 3.45691 193.724C-1.62388 185.291 -1.06436 174.625 4.87292 166.804L5.15906 166.434C87.909 62.1588 221.451 6.35369e-05 362.406 0ZM326.07 397.737C337.674 400.639 349.715 402.394 362.062 402.867C371.055 403.21 379.907 402.883 388.572 401.939L385.933 401.93C365.732 401.773 345.74 400.353 326.07 397.737ZM369.05 48C268.455 48.0005 187.296 131.264 191.171 232.427V232.428C192.358 263.681 201.825 292.967 217.425 318.154C270.173 341.361 328.892 354.007 389.697 354.007V401.815C477.844 391.656 546.389 317.287 547.032 226.799C546.534 226.962 545.897 227.175 545.136 227.434C543.089 228.129 540.161 229.143 536.644 230.373C529.613 232.832 520.235 236.148 510.857 239.476C501.479 242.803 492.1 246.144 485.066 248.651C481.55 249.905 478.619 250.951 476.567 251.684C475.542 252.05 474.735 252.338 474.185 252.534C474.03 252.59 473.895 252.637 473.781 252.678L436.73 352.444C434.208 359.345 424.418 359.319 421.849 352.446L421.848 352.443L384.848 252.671L284.786 215.784L284.467 215.661C277.862 212.969 277.992 203.459 284.779 200.937L284.781 200.936L384.848 163.991L424.614 56.8184C409.708 51.9316 393.889 48.9622 377.51 48.1982C375.019 48.1122 372.523 48.0474 370.024 48.0039C369.7 48.0022 369.375 48 369.05 48ZM218.367 319.659C241.209 355.734 276.711 383.196 318.457 395.65C341.464 399.093 364.94 400.891 388.697 400.94V355.003C328.629 354.866 270.607 342.42 218.367 319.659ZM362.406 1C221.736 1.00006 88.4908 63.0341 5.94324 167.053C-0.00171758 174.576 -0.63473 184.996 4.31238 193.207H4.31335C68.9915 300.271 182.735 373.468 311.954 394.63C272.198 381.157 238.546 354.02 216.737 318.942C156.23 292.269 103.567 251.725 64.5995 200.424V200.423C57.1219 190.658 57.6183 176.758 66.2743 167.93C140.711 91.622 248.762 46.9366 362.406 46.9365C364.951 46.9365 367.493 46.9608 370.03 47.0049C372.557 47.0184 375.073 47.0832 377.575 47.2002C495.87 51.2961 604.957 103.122 675.829 187.037L676.484 187.789C683.357 195.462 693.11 199.972 703.455 199.972H725.035C732.47 199.971 736.869 191.597 732.618 185.514L730.721 182.84C649.924 69.9995 511.658 1.00002 362.406 1ZM348.562 48.1592C240.28 51.627 138.199 95.6281 66.9882 168.63L66.6053 169.029C58.6832 177.502 58.3156 190.575 65.3964 199.818C103.971 250.601 156.011 290.826 215.812 317.441C200.578 292.393 191.346 263.387 190.172 232.466C186.542 137.698 257.115 58.5557 348.562 48.1592ZM439.06 70.5605C437.248 65.5088 442.52 60.8412 447.352 63.2021C493.916 86.1547 529.059 128.711 541.963 180.052C543.097 184.592 538.699 188.6 534.266 187.101L534.056 187.025L475.356 164.786C473.709 164.182 472.446 162.865 471.896 161.272L439.06 70.5605ZM446.913 64.1006C442.872 62.1264 438.501 66.0303 440.001 70.2197L472.837 160.932L472.84 160.939L472.843 160.946C473.266 162.175 474.21 163.211 475.449 163.747L475.7 163.848L475.711 163.852L534.41 186.09H534.409C538.163 187.509 541.947 184.116 540.992 180.294V180.293C528.161 129.244 493.217 86.9248 446.913 64.0996V64.1006Z" fill="#F3E2C8" fill-opacity="0.2"/>
</svg>
