<svg preserveAspectRatio="xMidYMid meet" width="102" height="56" overflow="visible" style="display: block;" viewBox="0 0 102 56.0437" fill="none" xmlns="http://www.w3.org/2000/svg">
<g id="Group">
<path id="Vector" d="M74.0854 25.9444L65.9425 22.8594C65.714 22.7756 65.5388 22.5928 65.4627 22.3719L60.9075 9.78819C60.6562 9.0874 61.3874 8.43991 62.0577 8.76745C68.5172 11.9515 73.3923 17.8549 75.1823 24.9771C75.3423 25.6169 74.71 26.1806 74.0854 25.9444Z" fill="var(--fill-0, #F3E2C8)"/>
<path id="Vector_2" d="M100.578 27.8793H97.5848C96.0613 27.8793 94.6293 27.1937 93.6466 26.0359C83.4242 13.932 67.4508 6.64988 50.2738 6.64988C34.5441 6.64988 19.5914 12.8351 9.2928 23.3927C8.14259 24.5657 8.07403 26.4167 9.0719 27.7193C19.18 41.0267 35.9533 49.1087 54.0596 49.1087V55.7585C31.7714 55.7585 11.2428 44.6906 0.479597 26.8738C-0.236428 25.6855 -0.14502 24.1773 0.715733 23.088C12.195 8.62277 30.7202 0 50.2738 0C71.1833 0 90.5464 9.74251 101.744 25.655C102.399 26.5919 101.721 27.8793 100.578 27.8793Z" fill="var(--fill-0, #F3E2C8)"/>
<path id="Vector_3" d="M76.0353 31.2004C76.0353 45.2467 64.3808 56.5659 50.2203 56.0251C37.347 55.53 26.858 45.041 26.3705 32.1678C25.8297 18.0072 37.1566 6.35278 51.1953 6.35278C53.9527 6.35278 56.6112 6.8022 59.0868 7.63248L53.4957 22.7452L39.5484 27.9097C38.7105 28.222 38.7105 29.4103 39.5484 29.715L53.4957 34.8719L58.6526 48.8192C58.9649 49.6571 60.1532 49.6571 60.4579 48.8192L65.6224 34.8719C65.6224 34.8719 76.0353 31.1394 76.0353 31.1928V31.2004Z" fill="var(--fill-0, #F3E2C8)"/>
</g>
</svg>
